<?xml version="1.0" encoding="utf-8"?>
<!-- Generator: Adobe Illustrator 21.1.0, SVG Export Plug-In . SVG Version: 6.00 Build 0)  -->
<svg version="1.1" id="Icons" xmlns="http://www.w3.org/2000/svg" xmlns:xlink="http://www.w3.org/1999/xlink" x="0px" y="0px"
	 viewBox="0 0 48 48" style="enable-background:new 0 0 48 48;" xml:space="preserve">
<style type="text/css">
	.st0{fill:#FFE500;}
	.st1{fill:#FFA694;}
	.st2{fill:#FFF48C;}
	.st3{fill:none;stroke:#45413C;stroke-linecap:round;stroke-linejoin:round;stroke-miterlimit:10;}
	.st4{fill:#FF866E;}
	.st5{opacity:0.15;fill:#45413C;}
	.st6{fill:none;stroke:#45413C;stroke-linecap:round;stroke-miterlimit:10;}
	.st7{fill:#FF6242;}
	.st8{fill:#FFB0CA;stroke:#45413C;stroke-linecap:round;stroke-linejoin:round;stroke-miterlimit:10;}
	.st9{fill:#FF866E;stroke:#45413C;stroke-linecap:round;stroke-linejoin:round;stroke-miterlimit:10;}
	.st10{fill:#FFFFFF;stroke:#45413C;stroke-linecap:round;stroke-linejoin:round;stroke-miterlimit:10;}
	.st11{fill:#FFE500;stroke:#45413C;stroke-linecap:round;stroke-linejoin:round;stroke-miterlimit:10;}
	.st12{fill:#45413C;stroke:#45413C;stroke-linecap:round;stroke-linejoin:round;stroke-miterlimit:10;}
	.st13{fill:#00B8F0;}
	.st14{fill:#4ACFFF;}
	.st15{fill:#B89558;stroke:#45413C;stroke-linecap:round;stroke-linejoin:round;stroke-miterlimit:10;}
	.st16{fill:#B89558;}
	.st17{fill:#F7E5C6;}
	.st18{fill:#DEBB7E;}
	.st19{fill:#947746;stroke:#45413C;stroke-miterlimit:10;}
	.st20{fill:#FF866E;stroke:#45413C;stroke-miterlimit:10;}
	.st21{fill:#FFF5E3;stroke:#45413C;stroke-linecap:round;stroke-linejoin:round;stroke-miterlimit:10;}
	.st22{fill:#DEBB7E;stroke:#45413C;stroke-linecap:round;stroke-linejoin:round;stroke-miterlimit:10;}
	.st23{fill:#B89558;stroke:#45413C;stroke-miterlimit:10;}
	.st24{fill:#FFAA54;}
	.st25{fill:#724F3D;}
	.st26{fill:#A86C4D;}
	.st27{fill:#FFDA8F;}
	.st28{fill:#FFE9BD;}
	.st29{fill:#FFBE3D;}
	.st30{fill:#614B44;}
	.st31{fill:#947063;}
	.st32{fill:#D18660;}
	.st33{fill:#E09F7E;}
	.st34{fill:#BD704A;}
	.st35{fill:#FFDA8F;stroke:#45413C;stroke-linecap:round;stroke-linejoin:round;stroke-miterlimit:10;}
	.st36{fill:#D18660;stroke:#45413C;stroke-miterlimit:10;}
	.st37{fill:#DE926A;}
	.st38{fill:#FFCEBF;stroke:#45413C;stroke-linecap:round;stroke-linejoin:round;stroke-miterlimit:10;}
	.st39{fill:#FFB59E;}
	.st40{fill:#E0E0E0;}
	.st41{fill:#FFFFFF;}
	.st42{fill:#FFCEBF;}
	.st43{fill:#FFDCD1;}
	.st44{fill:#F0F0F0;stroke:#45413C;stroke-linecap:round;stroke-linejoin:round;stroke-miterlimit:10;}
	.st45{fill:#00DFEB;stroke:#45413C;stroke-linecap:round;stroke-linejoin:round;stroke-miterlimit:10;}
	.st46{fill:#EBCB00;}
	.st47{fill:#87898C;stroke:#45413C;stroke-linecap:round;stroke-linejoin:round;stroke-miterlimit:10;}
	.st48{fill:#C0DCEB;stroke:#45413C;stroke-linecap:round;stroke-linejoin:round;stroke-miterlimit:10;}
	.st49{fill:#E8F4FA;}
	.st50{fill:#80DDFF;}
	.st51{fill:#FF6196;}
	.st52{fill:#FF6196;stroke:#45413C;stroke-linecap:round;stroke-linejoin:round;stroke-miterlimit:10;}
	.st53{fill:#724F3D;stroke:#45413C;stroke-linecap:round;stroke-linejoin:round;stroke-miterlimit:10;}
	.st54{fill:#656769;stroke:#45413C;stroke-linecap:round;stroke-linejoin:round;stroke-miterlimit:10;}
	.st55{fill:#DAEDF7;stroke:#45413C;stroke-linecap:round;stroke-linejoin:round;stroke-miterlimit:10;}
	.st56{fill:#F0D5A8;}
	.st57{fill:#DAEDF7;}
	.st58{fill:#A86C4D;stroke:#45413C;stroke-linecap:round;stroke-linejoin:round;stroke-miterlimit:10;}
	.st59{fill:#FF6242;stroke:#45413C;stroke-linecap:round;stroke-linejoin:round;stroke-miterlimit:10;}
	.st60{fill:#009FD9;stroke:#45413C;stroke-linecap:round;stroke-linejoin:round;stroke-miterlimit:10;}
	.st61{fill:#656769;}
	.st62{fill:#525252;}
	.st63{fill:#525252;stroke:#45413C;stroke-linecap:round;stroke-linejoin:round;stroke-miterlimit:10;}
	.st64{fill:#6DD627;}
	.st65{fill:#009FD9;}
	.st66{fill:#ADC4D9;}
	.st67{fill:#C0DCEB;}
	.st68{fill:#FF8A14;}
	.st69{fill:#EB6D00;}
	.st70{fill:#00DBA8;stroke:#45413C;stroke-linecap:round;stroke-linejoin:round;stroke-miterlimit:10;}
	.st71{fill:#B8ECFF;}
	.st72{fill:#FF87AF;}
	.st73{fill:#80DDFF;stroke:#45413C;stroke-linecap:round;stroke-linejoin:round;stroke-miterlimit:10;}
	.st74{fill:#00DBA8;}
	.st75{fill:#00F5BC;}
	.st76{fill:#E5FEFF;stroke:#45413C;stroke-linecap:round;stroke-linejoin:round;stroke-miterlimit:10;}
	.st77{fill:#46B000;}
	.st78{fill:#46B000;stroke:#45413C;stroke-linecap:round;stroke-linejoin:round;stroke-miterlimit:10;}
	.st79{fill:#BF8256;stroke:#45413C;stroke-linecap:round;stroke-linejoin:round;stroke-miterlimit:10;}
	.st80{fill:#ADC4D9;stroke:#45413C;stroke-linecap:round;stroke-linejoin:round;stroke-miterlimit:10;}
	.st81{fill:#BDBEC0;}
	.st82{fill:#F0F0F0;}
	.st83{fill:#FFB59E;stroke:#45413C;stroke-linecap:round;stroke-linejoin:round;stroke-miterlimit:10;}
	.st84{fill:#45413C;}
	.st85{fill:#E04122;}
	.st86{fill:none;stroke:#48CF3E;stroke-linecap:round;stroke-linejoin:round;stroke-miterlimit:10;}
	.st87{fill:none;stroke:#FF4064;stroke-linecap:round;stroke-linejoin:round;stroke-miterlimit:10;}
	.st88{fill:none;stroke:#FFB700;stroke-linecap:round;stroke-linejoin:round;stroke-miterlimit:10;}
	.st89{fill:#BF8DF2;}
	.st90{fill:#9F5AE5;}
	.st91{fill:#00AD85;}
	.st92{fill:#8CA4B8;}
	.st93{fill:#627B8C;}
	.st94{fill:#627B8C;stroke:#45413C;stroke-linecap:round;stroke-linejoin:round;stroke-miterlimit:10;}
	.st95{fill:#87898C;}
	.st96{fill:#FF8A14;stroke:#45413C;stroke-linecap:round;stroke-linejoin:round;stroke-miterlimit:10;}
	.st97{fill:#E04122;stroke:#45413C;stroke-linecap:round;stroke-linejoin:round;stroke-miterlimit:10;}
	.st98{fill:#EBCB00;stroke:#45413C;stroke-linecap:round;stroke-linejoin:round;stroke-miterlimit:10;}
	.st99{fill:#6DD627;stroke:#45413C;stroke-linecap:round;stroke-linejoin:round;stroke-miterlimit:10;}
	.st100{fill:#FFB0CA;}
	.st101{fill:#FFB59E;stroke:#FFAA54;stroke-miterlimit:10;}
	.st102{fill:#FF87AF;stroke:#45413C;stroke-linecap:round;stroke-linejoin:round;stroke-miterlimit:10;}
</style>
<g>
	<g>
		<path id="XMLID_2868_" class="st26" d="M20.4,6.3c6,0,10.9,4.9,10.9,10.9v14.2c0,0.5-0.3,1-0.8,1.1l0,0c-6.5,2.6-13.7,2.6-20.2,0
			l0,0c-0.5-0.2-0.8-0.6-0.8-1.1V17.2C9.5,11.2,14.4,6.3,20.4,6.3z"/>
		<path id="XMLID_2867_" class="st37" d="M20.4,6.3c-6,0-10.9,4.9-10.9,10.9v3c0-6,4.9-10.9,10.9-10.9s10.9,4.9,10.9,10.9v-3
			C31.3,11.2,26.4,6.3,20.4,6.3z"/>
		<path id="XMLID_2866_" class="st3" d="M20.4,6.3c6,0,10.9,4.9,10.9,10.9v14.2c0,0.5-0.3,1-0.8,1.1l0,0c-6.5,2.6-13.7,2.6-20.2,0
			l0,0c-0.5-0.2-0.8-0.6-0.8-1.1V17.2C9.5,11.2,14.4,6.3,20.4,6.3z"/>
	</g>
	<g>
		<g>
			<path class="st61" d="M27.9,32.8L20.4,30l-7.5,2.9c-2.6,1-4.3,3.5-4.3,6.3V45h23.8v-5.9C32.3,36.3,30.6,33.8,27.9,32.8z"/>
			<path class="st62" d="M27.9,32.8L20.4,30l-7.5,2.9c-2.6,1-4.3,3.5-4.3,6.3v3c0-2.8,1.7-5.3,4.3-6.3l7.5-2.9l7.5,2.9
				c2.6,1,4.3,3.5,4.3,6.3v-3C32.3,36.3,30.6,33.8,27.9,32.8z"/>
			<path class="st3" d="M27.9,32.8L20.4,30l-7.5,2.9c-2.6,1-4.3,3.5-4.3,6.3V45h23.8v-5.9C32.3,36.3,30.6,33.8,27.9,32.8z"/>
		</g>
		<ellipse id="XMLID_2865_" class="st5" cx="20.4" cy="45.5" rx="13.5" ry="1.5"/>
		<path class="st44" d="M20.4,30c0,0-5,0-5,2.8c0,3.2,2.2,5.8,2.2,5.8l2.9-2.4l2.9,2.4c0,0,2.2-2.5,2.2-5.8C25.4,30,20.4,30,20.4,30
			z"/>
		<line id="XMLID_2861_" class="st3" x1="11.9" y1="45" x2="11.4" y2="42.6"/>
		<line id="XMLID_2860_" class="st3" x1="28.9" y1="45" x2="29.4" y2="42.6"/>
		<polygon id="XMLID_2857_" class="st10" points="17.5,38.6 20.4,42.1 23.3,38.6 20.4,36.2 		"/>
		<polygon class="st59" points="21.9,37.4 20.4,36.2 18.9,37.4 19.7,38.8 19.3,40.8 20.4,42.1 21.5,40.8 21.1,38.8 		"/>
		<path id="XMLID_2855_" class="st3" d="M10.9,34c0,0-0.3,2.1,1.3,4.6s4.6,6.4,4.6,6.4"/>
		<path id="XMLID_2854_" class="st3" d="M29.9,34c0,0,0.3,2.1-1.3,4.6S24,45,24,45"/>
		<path id="XMLID_2853_" class="st56" d="M31.3,33L31.3,33c-0.5-0.1-0.8-0.7-0.7-1.2l1.4-5.6c0.1-0.5,0.7-0.8,1.2-0.7l0,0
			c0.5,0.1,0.8,0.7,0.7,1.2l-1.4,5.6C32.4,32.8,31.8,33.1,31.3,33z"/>
		<path id="XMLID_2852_" class="st17" d="M33.2,25.5c-0.5-0.1-1,0.2-1.2,0.7l-0.4,1.4c0.2-0.2,0.6-0.2,0.9-0.1l0.2,0.1
			c0.4,0.1,0.6,0.3,0.8,0.7l0.4-1.5C34,26.2,33.7,25.6,33.2,25.5z"/>
		<path id="XMLID_2851_" class="st3" d="M31.3,33L31.3,33c-0.5-0.1-0.8-0.7-0.7-1.2l1.4-5.6c0.1-0.5,0.7-0.8,1.2-0.7l0,0
			c0.5,0.1,0.8,0.7,0.7,1.2l-1.4,5.6C32.4,32.8,31.8,33.1,31.3,33z"/>
		<path id="XMLID_2850_" class="st56" d="M41.9,35.7L41.9,35.7c-0.5-0.1-0.8-0.7-0.7-1.2l1.4-5.6c0.1-0.5,0.7-0.8,1.2-0.7h0
			c0.5,0.1,0.8,0.7,0.7,1.2L43.1,35C43,35.5,42.4,35.8,41.9,35.7z"/>
		<path id="XMLID_2849_" class="st17" d="M43.8,28.2c-0.5-0.1-1,0.2-1.2,0.7l-0.4,1.4c0.2-0.2,0.6-0.2,0.9-0.1l0.2,0.1
			c0.4,0.1,0.6,0.3,0.8,0.7l0.4-1.5C44.6,28.8,44.3,28.3,43.8,28.2z"/>
		<path id="XMLID_2848_" class="st3" d="M41.9,35.7L41.9,35.7c-0.5-0.1-0.8-0.7-0.7-1.2l1.4-5.6c0.1-0.5,0.7-0.8,1.2-0.7h0
			c0.5,0.1,0.8,0.7,0.7,1.2L43.1,35C43,35.5,42.4,35.8,41.9,35.7z"/>
		
			<rect id="XMLID_2847_" x="33.1" y="27.2" transform="matrix(0.9695 0.2451 -0.2451 0.9695 8.6461 -8.2729)" class="st18" width="9" height="6.8"/>
		
			<rect id="XMLID_2846_" x="36.9" y="23.9" transform="matrix(0.2451 -0.9695 0.9695 0.2451 1.1913 58.4109)" class="st56" width="2.4" height="9"/>
		
			<rect id="XMLID_2843_" x="33.1" y="27.2" transform="matrix(0.9695 0.2451 -0.2451 0.9695 8.6461 -8.2729)" class="st3" width="9" height="6.8"/>
		
			<rect id="XMLID_2842_" x="34.2" y="33.7" transform="matrix(0.9695 0.2451 -0.2451 0.9695 10.7861 -7.4393)" class="st18" width="2.1" height="11.7"/>
		
			<rect id="XMLID_2841_" x="35.5" y="33.8" transform="matrix(0.2451 -0.9695 0.9695 0.2451 -6.2684 61.6877)" class="st16" width="2" height="2.1"/>
		
			<rect id="XMLID_2840_" x="34.2" y="33.7" transform="matrix(0.9695 0.2451 -0.2451 0.9695 10.7861 -7.4393)" class="st3" width="2.1" height="11.7"/>
		<path id="XMLID_2838_" class="st42" d="M32.8,45L32.8,45l1.6-6.5c0.2-0.8-0.3-1.7-1.1-1.9h0c-0.4-0.1-0.9,0.2-1,0.6l-1.3,5
			C30.8,43.5,31.6,44.7,32.8,45z"/>
		<path id="XMLID_2837_" class="st43" d="M33.4,36.7c-0.4-0.1-0.9,0.2-1,0.6l-0.5,1.9c0.1-0.4,0.5-0.7,1-0.6c0.8,0.2,1.3,1,1.1,1.9
			l0.5-1.9C34.7,37.7,34.2,36.9,33.4,36.7z"/>
		<path id="XMLID_2834_" class="st3" d="M32.8,45L32.8,45l1.6-6.5c0.2-0.8-0.3-1.7-1.1-1.9h0c-0.4-0.1-0.9,0.2-1,0.6l-1.3,5
			C30.8,43.5,31.6,44.7,32.8,45z"/>
		<path id="XMLID_2832_" class="st42" d="M37,39l-1.9-0.5c-0.6-0.2-1.2,0.2-1.4,0.8c-0.2,0.6,0.2,1.2,0.8,1.4
			c-0.6-0.1-1.2,0.2-1.3,0.8C33,42.2,33.3,42.8,34,43c-0.6-0.2-1.2,0.2-1.4,0.8c-0.2,0.6,0.2,1.2,0.8,1.4l1.9,0.5l0,0
			c1.2,0.3,2.4-0.4,2.7-1.6l0.6-2.4C38.9,40.5,38.2,39.3,37,39L37,39z"/>
		<g id="XMLID_2830_">
			<path id="XMLID_2831_" class="st43" d="M37,39l-1.9-0.5c-0.6-0.2-1.2,0.2-1.4,0.8c-0.1,0.2,0,0.4,0,0.6c0.3-0.3,0.7-0.4,1.1-0.3
				l1.9,0.5c1.2,0.3,1.9,1.5,1.6,2.7l0.3-1.1C38.9,40.5,38.2,39.3,37,39z"/>
		</g>
		<path id="XMLID_2829_" class="st3" d="M37,39l-1.9-0.5c-0.6-0.2-1.2,0.2-1.4,0.8c-0.2,0.6,0.2,1.2,0.8,1.4
			c-0.6-0.1-1.2,0.2-1.3,0.8C33,42.2,33.3,42.8,34,43c-0.6-0.2-1.2,0.2-1.4,0.8c-0.2,0.6,0.2,1.2,0.8,1.4l1.9,0.5l0,0
			c1.2,0.3,2.4-0.4,2.7-1.6l0.6-2.4C38.9,40.5,38.2,39.3,37,39L37,39z"/>
		<path class="st42" d="M20.4,27.2c-1.4,0-2.5,1.1-2.5,2.5v2.8c0,1.4,2.5,3.6,2.5,3.6s2.5-2.2,2.5-3.6v-2.8
			C22.9,28.3,21.8,27.2,20.4,27.2z"/>
		<path id="XMLID_2827_" class="st39" d="M20.4,27.2c-1.4,0-2.5,1.1-2.5,2.5v0.6c0,1.4,1.1,2.5,2.5,2.5c1.4,0,2.5-1.1,2.5-2.5v-0.6
			C22.9,28.3,21.8,27.2,20.4,27.2z"/>
		<path class="st3" d="M20.4,27.2c-1.4,0-2.5,1.1-2.5,2.5v2.8c0,1.4,2.5,3.6,2.5,3.6s2.5-2.2,2.5-3.6v-2.8
			C22.9,28.3,21.8,27.2,20.4,27.2z"/>
	</g>
	<g>
		<g id="XMLID_2825_">
			<path id="XMLID_2826_" class="st38" d="M29.5,19.5c-2.6-0.7-4.6-2.6-5.7-5l-0.6-1.5c-2.4,3.3-6,5.5-9.9,6.2l-1.9,0.3
				c-1,0-1.8,0.8-1.8,1.8s0.8,1.8,1.8,1.8c0,0,0.1,0,0.1,0c0.7,4.4,4.4,7.7,9,7.7c4.5,0,8.3-3.4,9-7.7c0,0,0.1,0,0.1,0
				c1,0,1.8-0.8,1.8-1.8S30.5,19.5,29.5,19.5z"/>
		</g>
		<circle id="XMLID_2824_" class="st12" cx="15.7" cy="20.9" r="0.8"/>
		<circle id="XMLID_2823_" class="st12" cx="25.1" cy="20.9" r="0.8"/>
		<g id="XMLID_2811_">
			<g id="XMLID_2812_">
				<g id="XMLID_2816_">
					<g id="XMLID_2817_">
						<g id="XMLID_2818_">
							<g id="XMLID_2819_">
								<g id="XMLID_2820_">
									<path id="XMLID_2822_" class="st7" d="M17.6,25.6c-0.1,0-0.3,0.1-0.3,0.2c-0.1,0.1-0.1,0.2-0.1,0.4
										c0.2,1.6,1.6,2.8,3.3,2.8c1.7,0,3-1.2,3.3-2.8c0-0.1,0-0.3-0.1-0.4c-0.1-0.1-0.2-0.2-0.3-0.2H17.6z"/>
									<path id="XMLID_2821_" class="st1" d="M20.4,27c-1,0-1.9,0.3-2.5,0.8c0.6,0.7,1.5,1.1,2.5,1.1s1.9-0.4,2.5-1.1
										C22.3,27.3,21.4,27,20.4,27z"/>
								</g>
							</g>
						</g>
					</g>
				</g>
			</g>
		</g>
		<g id="XMLID_2809_">
			<path id="XMLID_2810_" class="st3" d="M17.6,25.6c-0.1,0-0.3,0.1-0.3,0.2c-0.1,0.1-0.1,0.2-0.1,0.4c0.2,1.6,1.6,2.8,3.3,2.8
				c1.7,0,3-1.2,3.3-2.8c0-0.1,0-0.3-0.1-0.4c-0.1-0.1-0.2-0.2-0.3-0.2H17.6z"/>
		</g>
		<ellipse id="XMLID_2808_" class="st39" cx="14.5" cy="24.2" rx="1" ry="0.6"/>
		<ellipse id="XMLID_2807_" class="st39" cx="26.3" cy="24.2" rx="1" ry="0.6"/>
	</g>
</g>
</svg>
